<svg width="90" height="40" viewBox="0 0 90 40" fill="none" xmlns="http://www.w3.org/2000/svg">
<g filter="url(#filter0_bi_1_432)">
<rect width="90" height="40" rx="20" fill="#F2F2F2"/>
<rect x="0.5" y="0.5" width="89" height="39" rx="19.5" stroke="url(#paint0_linear_1_432)" stroke-opacity="0.6"/>
<path d="M25.2 24.8H14.8C14.58 24.8 14.4 24.98 14.4 25.2V26C14.4 26.22 14.58 26.4 14.8 26.4H25.2C25.42 26.4 25.6 26.22 25.6 26V25.2C25.6 24.98 25.42 24.8 25.2 24.8ZM26.8 16.8C26.1375 16.8 25.6 17.3375 25.6 18C25.6 18.1775 25.64 18.3425 25.71 18.495L23.9 19.58C23.515 19.81 23.0175 19.68 22.795 19.29L20.7575 15.725C21.025 15.505 21.2 15.175 21.2 14.8C21.2 14.1375 20.6625 13.6 20 13.6C19.3375 13.6 18.8 14.1375 18.8 14.8C18.8 15.175 18.975 15.505 19.2425 15.725L17.205 19.29C16.9825 19.68 16.4825 19.81 16.1 19.58L14.2925 18.495C14.36 18.345 14.4025 18.1775 14.4025 18C14.4025 17.3375 13.865 16.8 13.2025 16.8C12.54 16.8 12 17.3375 12 18C12 18.6625 12.5375 19.2 13.2 19.2C13.265 19.2 13.33 19.19 13.3925 19.18L15.2 24H24.8L26.6075 19.18C26.67 19.19 26.735 19.2 26.8 19.2C27.4625 19.2 28 18.6625 28 18C28 17.3375 27.4625 16.8 26.8 16.8Z" fill="#707070"/>
<path d="M33.08 23.5V15.1H36.716C38.348 15.1 39.428 16.18 39.428 17.512C39.428 18.856 38.312 19.948 36.716 19.948H34.016V23.5H33.08ZM34.016 19.132H36.62C37.808 19.132 38.492 18.412 38.492 17.512C38.492 16.612 37.808 15.916 36.62 15.916H34.016V19.132ZM40.7256 23.5V17.356H41.5896V18.832C41.8176 17.884 42.4416 17.284 43.5576 17.284C43.7496 17.284 43.9416 17.296 44.0616 17.332V18.112C43.9296 18.088 43.8216 18.088 43.6536 18.088C42.5016 18.088 41.6376 18.988 41.6376 20.536V23.5H40.7256ZM47.4462 23.644C45.7422 23.644 44.4942 22.18 44.4942 20.428C44.4942 18.676 45.7422 17.212 47.4462 17.212C49.1502 17.212 50.3982 18.676 50.3982 20.428C50.3982 22.18 49.1502 23.644 47.4462 23.644ZM47.4462 22.852C48.6942 22.852 49.4862 21.664 49.4862 20.428C49.4862 19.192 48.6942 18.004 47.4462 18.004C46.1982 18.004 45.4062 19.192 45.4062 20.428C45.4062 21.664 46.1982 22.852 47.4462 22.852ZM54.1992 23.5V15.1H57.8352C59.4672 15.1 60.5472 16.18 60.5472 17.512C60.5472 18.856 59.4312 19.948 57.8352 19.948H55.1352V23.5H54.1992ZM55.1352 19.132H57.7392C58.9272 19.132 59.6112 18.412 59.6112 17.512C59.6112 16.612 58.9272 15.916 57.7392 15.916H55.1352V19.132ZM61.9048 23.5V14.74H62.8168V23.5H61.9048ZM64.4232 21.712C64.4232 20.596 65.2632 19.9 66.6072 19.816L68.5872 19.684V19.456C68.5872 18.508 68.0952 17.944 67.1112 17.944C66.2352 17.944 65.7072 18.448 65.5752 19.096H64.6752C64.8552 17.98 65.7552 17.212 67.0992 17.212C68.6712 17.212 69.4992 18.112 69.4992 19.444V23.5H68.6112V22.54C68.3712 23.14 67.6632 23.644 66.6192 23.644C65.2752 23.644 64.4232 22.852 64.4232 21.712ZM65.3112 21.688C65.3112 22.432 65.8032 22.96 66.7392 22.96C67.7832 22.96 68.5872 22.228 68.5872 20.956V20.344L66.9552 20.452C65.8752 20.524 65.3112 20.908 65.3112 21.688ZM71.256 23.5V17.356H72.12V18.412C72.408 17.668 73.092 17.212 74.064 17.212C75.504 17.212 76.32 18.22 76.32 19.744V23.5H75.408V19.876C75.408 18.748 74.928 18.028 73.908 18.028C72.9 18.028 72.168 18.724 72.168 19.912V23.5H71.256Z" fill="#707070"/>
</g>
<defs>
<filter id="filter0_bi_1_432" x="-35" y="-35" width="160" height="110" filterUnits="userSpaceOnUse" color-interpolation-filters="sRGB">
<feFlood flood-opacity="0" result="BackgroundImageFix"/>
<feGaussianBlur in="BackgroundImageFix" stdDeviation="17.5"/>
<feComposite in2="SourceAlpha" operator="in" result="effect1_backgroundBlur_1_432"/>
<feBlend mode="normal" in="SourceGraphic" in2="effect1_backgroundBlur_1_432" result="shape"/>
<feColorMatrix in="SourceAlpha" type="matrix" values="0 0 0 0 0 0 0 0 0 0 0 0 0 0 0 0 0 0 127 0" result="hardAlpha"/>
<feMorphology radius="1" operator="erode" in="SourceAlpha" result="effect2_innerShadow_1_432"/>
<feOffset/>
<feGaussianBlur stdDeviation="2"/>
<feComposite in2="hardAlpha" operator="arithmetic" k2="-1" k3="1"/>
<feColorMatrix type="matrix" values="0 0 0 0 1 0 0 0 0 1 0 0 0 0 1 0 0 0 0.6 0"/>
<feBlend mode="normal" in2="shape" result="effect2_innerShadow_1_432"/>
</filter>
<linearGradient id="paint0_linear_1_432" x1="-4.31507" y1="1.5" x2="95.1013" y2="16.6732" gradientUnits="userSpaceOnUse">
<stop stop-color="white" stop-opacity="0.4"/>
<stop offset="0.36" stop-color="white"/>
<stop offset="1" stop-color="white" stop-opacity="0.2"/>
</linearGradient>
</defs>
</svg>
