<svg width="40" height="40" viewBox="0 0 40 40" fill="none" xmlns="http://www.w3.org/2000/svg">
<g filter="url(#filter0_bi_1_429)">
<rect width="40" height="40" rx="20" fill="#F2F2F2"/>
<rect x="0.5" y="0.5" width="39" height="39" rx="19.5" stroke="url(#paint0_linear_1_429)" stroke-opacity="0.6"/>
<path d="M21.4417 27.1696C21.2952 27.4222 21.0849 27.6318 20.8319 27.7775C20.5788 27.9233 20.292 28 20 28C19.708 28 19.4212 27.9233 19.1681 27.7775C18.9151 27.6318 18.7048 27.4222 18.5583 27.1696M25 16.6667C25 15.3406 24.4732 14.0688 23.5355 13.1311C22.5979 12.1934 21.3261 11.6667 20 11.6667C18.6739 11.6667 17.4021 12.1934 16.4645 13.1311C15.5268 14.0688 15 15.3406 15 16.6667C15 22.5 12.5 24.1667 12.5 24.1667H27.5C27.5 24.1667 25 22.5 25 16.6667Z" stroke="#707070" stroke-width="1.2" stroke-linecap="round" stroke-linejoin="round"/>
</g>
<defs>
<filter id="filter0_bi_1_429" x="-35" y="-35" width="110" height="110" filterUnits="userSpaceOnUse" color-interpolation-filters="sRGB">
<feFlood flood-opacity="0" result="BackgroundImageFix"/>
<feGaussianBlur in="BackgroundImageFix" stdDeviation="17.5"/>
<feComposite in2="SourceAlpha" operator="in" result="effect1_backgroundBlur_1_429"/>
<feBlend mode="normal" in="SourceGraphic" in2="effect1_backgroundBlur_1_429" result="shape"/>
<feColorMatrix in="SourceAlpha" type="matrix" values="0 0 0 0 0 0 0 0 0 0 0 0 0 0 0 0 0 0 127 0" result="hardAlpha"/>
<feMorphology radius="1" operator="erode" in="SourceAlpha" result="effect2_innerShadow_1_429"/>
<feOffset/>
<feGaussianBlur stdDeviation="2"/>
<feComposite in2="hardAlpha" operator="arithmetic" k2="-1" k3="1"/>
<feColorMatrix type="matrix" values="0 0 0 0 1 0 0 0 0 1 0 0 0 0 1 0 0 0 0.6 0"/>
<feBlend mode="normal" in2="shape" result="effect2_innerShadow_1_429"/>
</filter>
<linearGradient id="paint0_linear_1_429" x1="-1.91781" y1="1.5" x2="43.0894" y2="4.55295" gradientUnits="userSpaceOnUse">
<stop stop-color="white" stop-opacity="0.4"/>
<stop offset="0.36" stop-color="white"/>
<stop offset="1" stop-color="white" stop-opacity="0.2"/>
</linearGradient>
</defs>
</svg>
