<svg width="20" height="20" viewBox="0 0 20 20" fill="none" xmlns="http://www.w3.org/2000/svg">
<path d="M9.16667 3.33333H3.33333C2.89131 3.33333 2.46738 3.50893 2.15482 3.82149C1.84226 4.13405 1.66667 4.55797 1.66667 5V16.6667C1.66667 17.1087 1.84226 17.5326 2.15482 17.8452C2.46738 18.1577 2.89131 18.3333 3.33333 18.3333H15C15.442 18.3333 15.866 18.1577 16.1785 17.8452C16.4911 17.5326 16.6667 17.1087 16.6667 16.6667V10.8333M15.4167 2.08333C15.7482 1.75181 16.1978 1.56557 16.6667 1.56557C17.1355 1.56557 17.5851 1.75181 17.9167 2.08333C18.2482 2.41485 18.4344 2.86449 18.4344 3.33333C18.4344 3.80217 18.2482 4.25181 17.9167 4.58333L10 12.5L6.66667 13.3333L7.5 10L15.4167 2.08333Z" stroke="#707070" stroke-width="1.2" stroke-linecap="round" stroke-linejoin="round"/>
</svg>
