<svg width="20" height="20" viewBox="0 0 20 20" fill="none" xmlns="http://www.w3.org/2000/svg">
<path d="M3.10534 6.31211L8.85534 2.29892C9.54298 1.81897 10.457 1.81897 11.1447 2.29892L16.8947 6.31211C17.4306 6.68619 17.75 7.29855 17.75 7.95216V16.5C17.75 17.6046 16.8546 18.5 15.75 18.5H4.25C3.14543 18.5 2.25 17.6046 2.25 16.5V7.95216C2.25 7.29855 2.56937 6.68619 3.10534 6.31211Z" stroke="#6F66FF" stroke-width="1.2"/>
<path d="M6.38327 15.5121C6.38327 15.1707 6.66004 14.8939 7.00145 14.8939H12.9984C13.3398 14.8939 13.6166 15.1707 13.6166 15.5121C13.6166 15.8535 13.3398 16.1303 12.9984 16.1303H7.00145C6.66004 16.1303 6.38327 15.8535 6.38327 15.5121Z" fill="#6F66FF"/>
</svg>
